<svg xmlns="http://www.w3.org/2000/svg" width="850" height="300" viewBox="0 0 850 300">
<defs><linearGradient id="fill" x1="0" y1="0" x2="0" y2="1"><stop offset="0%" stop-color="#FF7B29" stop-opacity="0.45"/><stop offset="100%" stop-color="#FF7B29" stop-opacity="0"/></linearGradient></defs>
<rect width="850" height="300" rx="8" fill="#0d1117"/>
<text x="425.0" y="30" text-anchor="middle" fill="#FF7B29" font-family="Segoe UI, Helvetica, Arial, sans-serif" font-size="18" font-weight="600">Contributions, last 31 days (628)</text>
<g fill="#8b949e" font-family="Segoe UI, Helvetica, Arial, sans-serif" font-size="11"><line x1="50" y1="50.0" x2="830" y2="50.0" stroke="#21262d"/><text x="40" y="54.0" text-anchor="end">210</text><line x1="50" y1="101.2" x2="830" y2="101.2" stroke="#21262d"/><text x="40" y="105.2" text-anchor="end">158</text><line x1="50" y1="152.5" x2="830" y2="152.5" stroke="#21262d"/><text x="40" y="156.5" text-anchor="end">105</text><line x1="50" y1="203.8" x2="830" y2="203.8" stroke="#21262d"/><text x="40" y="207.8" text-anchor="end">52</text><line x1="50" y1="255.0" x2="830" y2="255.0" stroke="#21262d"/><text x="40" y="259.0" text-anchor="end">0</text><text x="50.0" y="280" text-anchor="middle">26/08</text><text x="180.0" y="280" text-anchor="middle">31/08</text><text x="310.0" y="280" text-anchor="middle">05/09</text><text x="440.0" y="280" text-anchor="middle">10/09</text><text x="570.0" y="280" text-anchor="middle">15/09</text><text x="700.0" y="280" text-anchor="middle">20/09</text><text x="830.0" y="280" text-anchor="middle">25/09</text></g>
<polygon points="50,255 50.0,255.0 76.0,50.0 102.0,208.1 128.0,210.1 154.0,255.0 180.0,253.0 206.0,243.3 232.0,255.0 258.0,254.0 284.0,255.0 310.0,255.0 336.0,255.0 362.0,255.0 388.0,237.4 414.0,232.5 440.0,250.1 466.0,253.0 492.0,252.1 518.0,253.0 544.0,220.8 570.0,230.6 596.0,234.5 622.0,244.3 648.0,242.3 674.0,253.0 700.0,167.1 726.0,233.5 752.0,242.3 778.0,243.3 804.0,252.1 830.0,246.2 830,255" fill="url(#fill)"/>
<polyline points="50.0,255.0 76.0,50.0 102.0,208.1 128.0,210.1 154.0,255.0 180.0,253.0 206.0,243.3 232.0,255.0 258.0,254.0 284.0,255.0 310.0,255.0 336.0,255.0 362.0,255.0 388.0,237.4 414.0,232.5 440.0,250.1 466.0,253.0 492.0,252.1 518.0,253.0 544.0,220.8 570.0,230.6 596.0,234.5 622.0,244.3 648.0,242.3 674.0,253.0 700.0,167.1 726.0,233.5 752.0,242.3 778.0,243.3 804.0,252.1 830.0,246.2" fill="none" stroke="#FF7B29" stroke-width="2.5" stroke-linejoin="round"/>
<circle cx="50.0" cy="255.0" r="3" fill="#ffffff"/><circle cx="76.0" cy="50.0" r="3" fill="#ffffff"/><circle cx="102.0" cy="208.1" r="3" fill="#ffffff"/><circle cx="128.0" cy="210.1" r="3" fill="#ffffff"/><circle cx="154.0" cy="255.0" r="3" fill="#ffffff"/><circle cx="180.0" cy="253.0" r="3" fill="#ffffff"/><circle cx="206.0" cy="243.3" r="3" fill="#ffffff"/><circle cx="232.0" cy="255.0" r="3" fill="#ffffff"/><circle cx="258.0" cy="254.0" r="3" fill="#ffffff"/><circle cx="284.0" cy="255.0" r="3" fill="#ffffff"/><circle cx="310.0" cy="255.0" r="3" fill="#ffffff"/><circle cx="336.0" cy="255.0" r="3" fill="#ffffff"/><circle cx="362.0" cy="255.0" r="3" fill="#ffffff"/><circle cx="388.0" cy="237.4" r="3" fill="#ffffff"/><circle cx="414.0" cy="232.5" r="3" fill="#ffffff"/><circle cx="440.0" cy="250.1" r="3" fill="#ffffff"/><circle cx="466.0" cy="253.0" r="3" fill="#ffffff"/><circle cx="492.0" cy="252.1" r="3" fill="#ffffff"/><circle cx="518.0" cy="253.0" r="3" fill="#ffffff"/><circle cx="544.0" cy="220.8" r="3" fill="#ffffff"/><circle cx="570.0" cy="230.6" r="3" fill="#ffffff"/><circle cx="596.0" cy="234.5" r="3" fill="#ffffff"/><circle cx="622.0" cy="244.3" r="3" fill="#ffffff"/><circle cx="648.0" cy="242.3" r="3" fill="#ffffff"/><circle cx="674.0" cy="253.0" r="3" fill="#ffffff"/><circle cx="700.0" cy="167.1" r="3" fill="#ffffff"/><circle cx="726.0" cy="233.5" r="3" fill="#ffffff"/><circle cx="752.0" cy="242.3" r="3" fill="#ffffff"/><circle cx="778.0" cy="243.3" r="3" fill="#ffffff"/><circle cx="804.0" cy="252.1" r="3" fill="#ffffff"/><circle cx="830.0" cy="246.2" r="3" fill="#ffffff"/>
</svg>
